# xmcd
#
# Track frame offsets: 
#        150
#        16371
#        34655
#        51788
#        71052
#        90466
#        107544
#        128651
#        146899
#        166829
#        184096
#        206439
#
# Disc length: 2947 seconds
#
# Revision: 0
# Processed by: cddbd v1.5.2PL0 Copyright (c) Steve Scherf et al.
# Submitted via: ExactAudioCopy v0.99pb4
#
DISCID=9e0b810c
DTITLE=Rascal Flatts - Unstoppable
DYEAR=2009
DGENRE=Country
TTITLE0=Love Who You Love
TTITLE1=Here Comes Goodbye
TTITLE2=Close
TTITLE3=Forever
TTITLE4=She'd Be California
TTITLE5=Unstoppable
TTITLE6=Things That Matter
TTITLE7=Summer Nights
TTITLE8=Holdin' On
TTITLE9=Once
TTITLE10=Why
TTITLE11=American Living (Bonus Track)
EXTD=
EXTT0=
EXTT1=
EXTT2=
EXTT3=
EXTT4=
EXTT5=
EXTT6=
EXTT7=
EXTT8=
EXTT9=
EXTT10=
EXTT11=
PLAYORDER=
